<svg width="24" height="24" viewBox="0 0 24 24" fill="none" xmlns="http://www.w3.org/2000/svg">
<path fill-rule="evenodd" clip-rule="evenodd" d="M1.25 12C1.25 6.08579 6.08579 1.25 12 1.25C17.9142 1.25 22.75 6.08579 22.75 12C22.75 17.9142 17.9142 22.75 12 22.75C6.08579 22.75 1.25 17.9142 1.25 12ZM12 2.75C6.91421 2.75 2.75 6.91421 2.75 12C2.75 17.0858 6.91421 21.25 12 21.25C17.0858 21.25 21.25 17.0858 21.25 12C21.25 6.91421 17.0858 2.75 12 2.75ZM8.25 9.58228C8.25 7.63537 10.0326 6.25 12 6.25C13.9674 6.25 15.75 7.63537 15.75 9.58228C15.75 11.0558 14.6498 11.8091 13.8999 12.2501C13.1426 12.7003 12.75 13.0663 12.75 13.6734V14C12.75 14.4142 12.4142 14.75 12 14.75C11.5858 14.75 11.25 14.4142 11.25 14V13.6734C11.25 12.1653 12.3751 11.4113 13.135 10.9597L13.1381 10.9579L13.1381 10.9579C13.87 10.5277 14.25 10.161 14.25 9.58228C14.25 8.66696 13.3579 7.75 12 7.75C10.6421 7.75 9.75 8.66696 9.75 9.58228C9.75 9.99649 9.41421 10.3323 9 10.3323C8.58579 10.3323 8.25 9.99649 8.25 9.58228ZM11.241 16.5C11.241 16.0858 11.5768 15.75 11.991 15.75H12.009C12.4232 15.75 12.759 16.0858 12.759 16.5C12.759 16.9142 12.4232 17.25 12.009 17.25H11.991C11.5768 17.25 11.241 16.9142 11.241 16.5Z" fill="white"/>
</svg>
