<svg width="22" height="22" viewBox="0 0 22 22" fill="none" xmlns="http://www.w3.org/2000/svg">
<path fill-rule="evenodd" clip-rule="evenodd" d="M0.25 11C0.25 5.08579 5.08579 0.25 11 0.25C16.9142 0.25 21.75 5.08579 21.75 11C21.75 16.9142 16.9142 21.75 11 21.75C5.08579 21.75 0.25 16.9142 0.25 11ZM11 1.75C5.91421 1.75 1.75 5.91421 1.75 11C1.75 16.0858 5.91421 20.25 11 20.25C16.0858 20.25 20.25 16.0858 20.25 11C20.25 5.91421 16.0858 1.75 11 1.75ZM7.25 8.58228C7.25 6.63537 9.03257 5.25 11 5.25C12.9674 5.25 14.75 6.63537 14.75 8.58228C14.75 10.0558 13.6498 10.8091 12.8999 11.2501C12.1426 11.7003 11.75 12.0663 11.75 12.6734V13C11.75 13.4142 11.4142 13.75 11 13.75C10.5858 13.75 10.25 13.4142 10.25 13V12.6734C10.25 11.1653 11.3751 10.4113 12.135 9.95975L12.1381 9.9579L12.1381 9.95791C12.87 9.52766 13.25 9.16096 13.25 8.58228C13.25 7.66696 12.3579 6.75 11 6.75C9.64207 6.75 8.75 7.66696 8.75 8.58228C8.75 8.99649 8.41421 9.33228 8 9.33228C7.58579 9.33228 7.25 8.99649 7.25 8.58228ZM10.241 15.5C10.241 15.0858 10.5768 14.75 10.991 14.75H11.009C11.4232 14.75 11.759 15.0858 11.759 15.5C11.759 15.9142 11.4232 16.25 11.009 16.25H10.991C10.5768 16.25 10.241 15.9142 10.241 15.5Z" fill="#37465C"/>
</svg>
